<?xml version="1.0" standalone="no"?>
<!DOCTYPE svg PUBLIC "-//W3C//DTD SVG 20010904//EN"
 "http://www.w3.org/TR/2001/REC-SVG-20010904/DTD/svg10.dtd">
<svg version="1.0" xmlns="http://www.w3.org/2000/svg"
 width="429.000000pt" height="429.000000pt" viewBox="0 0 429.000000 429.000000"
 preserveAspectRatio="xMidYMid meet">
<metadata>
Created by potrace 1.14, written by Peter Selinger 2001-2017
</metadata>
<g transform="translate(0.000000,429.000000) scale(0.100000,-0.100000)"
fill="#000000" stroke="none">
<path d="M2005 4184 c-371 -39 -702 -151 -968 -328 -587 -391 -931 -1022 -931
-1711 0 -465 162 -922 453 -1278 396 -486 971 -761 1586 -761 466 0 922 161
1278 453 486 396 761 970 761 1586 0 689 -343 1320 -931 1711 -226 150 -502
255 -798 305 -115 19 -366 32 -450 23z m330 -594 c405 -47 774 -209 1011 -445
196 -195 280 -382 291 -651 10 -226 -23 -396 -109 -569 -183 -365 -454 -546
-843 -562 -149 -6 -242 8 -378 58 -45 16 -84 29 -89 29 -4 0 -8 -135 -8 -300
0 -298 0 -301 -24 -348 -54 -105 -156 -190 -284 -234 -58 -20 -85 -23 -207
-22 -146 1 -228 17 -357 73 l-48 20 0 196 c0 107 4 195 9 195 5 0 14 -7 21
-15 20 -24 111 -72 169 -89 116 -34 209 -17 270 49 l41 45 0 830 0 830 205 0
205 0 2 -407 3 -408 45 -22 c80 -39 220 -74 320 -80 165 -9 300 38 396 139
106 110 144 216 151 423 4 110 2 154 -11 205 -81 323 -415 523 -941 565 -152
12 -367 -36 -530 -118 -114 -57 -190 -110 -271 -191 -132 -132 -186 -243 -186
-386 -1 -131 46 -251 149 -377 l45 -56 -150 -150 -150 -150 -26 29 c-97 109
-208 318 -246 459 -41 156 -37 409 11 593 25 96 95 245 153 326 84 118 255
265 406 351 141 80 331 141 505 164 99 12 344 13 450 1z"/>
</g>
</svg>
